<?xml version="1.0" encoding="UTF-8"?>
<svg xmlns="http://www.w3.org/2000/svg" xmlns:xlink="http://www.w3.org/1999/xlink" width="181.816pt" height="206.596pt" viewBox="0 0 181.816 206.596" version="1.1">
<defs>
<clipPath id="clip1">
  <path d="M 0 12 L 181.816406 12 L 181.816406 195 L 0 195 Z M 0 12 "/>
</clipPath>
<clipPath id="clip2">
  <path d="M 58 12 L 181.816406 12 L 181.816406 148 L 58 148 Z M 58 12 "/>
</clipPath>
<clipPath id="clip3">
  <path d="M 46 0 L 137 0 L 137 206.597656 L 46 206.597656 Z M 46 0 "/>
</clipPath>
<clipPath id="clip4">
  <path d="M 0 79 L 181.816406 79 L 181.816406 194 L 0 194 Z M 0 79 "/>
</clipPath>
</defs>
<g id="surface1">
<g clip-path="url(#clip1)" clip-rule="nonzero">
<path style="fill:none;stroke-width:0.3985;stroke-linecap:butt;stroke-linejoin:miter;stroke:rgb(7.998657%,7.998657%,7.998657%);stroke-opacity:1;stroke-miterlimit:10;" d="M 0.00021875 -0.0008125 L 181.422094 -0.0008125 M 0.00021875 22.678875 L 181.422094 22.678875 M 0.00021875 45.354656 L 181.422094 45.354656 M 0.00021875 68.034344 L 181.422094 68.034344 M 0.00021875 90.710125 L 181.422094 90.710125 M 0.00021875 113.385906 L 181.422094 113.385906 M 0.00021875 136.065594 L 181.422094 136.065594 M 0.00021875 158.741375 L 181.422094 158.741375 M 0.00021875 181.41325 L 181.422094 181.41325 M 0.00021875 -0.0008125 L 0.00021875 181.421063 M 22.676 -0.0008125 L 22.676 181.421063 M 45.355688 -0.0008125 L 45.355688 181.421063 M 68.031469 -0.0008125 L 68.031469 181.421063 M 90.711156 -0.0008125 L 90.711156 181.421063 M 113.386938 -0.0008125 L 113.386938 181.421063 M 136.066625 -0.0008125 L 136.066625 181.421063 M 158.742406 -0.0008125 L 158.742406 181.421063 M 181.410375 -0.0008125 L 181.410375 181.421063 " transform="matrix(1,0,0,-1,0.199,194.007)"/>
</g>
<path style=" stroke:none;fill-rule:nonzero;fill:rgb(100%,100%,100%);fill-opacity:1;" d="M 114.492188 35.265625 C 147.601562 64.746094 147.601562 64.746094 159.257812 80.160156 C 160.585938 81.917969 161.785156 85.121094 161.933594 87.316406 C 163.023438 103.296875 156.902344 119.171875 146.644531 124.214844 C 144.667969 125.1875 142.230469 124.398438 141.199219 122.457031 C 104.515625 53.40625 93.175781 55.675781 83.179688 60.339844 C 81.1875 61.269531 80.539062 60.523438 81.730469 58.675781 C 93.175781 40.933594 93.175781 40.933594 114.492188 35.265625 "/>
<g clip-path="url(#clip2)" clip-rule="nonzero">
<path style="fill:none;stroke-width:1.59404;stroke-linecap:butt;stroke-linejoin:miter;stroke:rgb(7.998657%,7.998657%,7.998657%);stroke-opacity:1;stroke-miterlimit:10;" d="M 114.293188 158.741375 C 147.402562 129.260906 147.402562 129.260906 159.058812 113.846844 C 160.386937 112.089031 161.586156 108.885906 161.734594 106.690594 C 162.824437 90.710125 156.703344 74.835125 146.445531 69.792156 C 144.468969 68.8195 142.031469 69.608563 141.000219 71.549969 C 104.316625 140.60075 92.976781 138.331219 82.980688 133.667156 C 80.9885 132.737469 80.340063 133.483563 81.531469 135.331219 C 92.976781 153.073406 92.976781 153.073406 114.293188 158.741375 " transform="matrix(1,0,0,-1,0.199,194.007)"/>
</g>
<path style="fill-rule:nonzero;fill:rgb(100%,100%,100%);fill-opacity:1;stroke-width:1.59404;stroke-linecap:butt;stroke-linejoin:miter;stroke:rgb(7.998657%,7.998657%,7.998657%);stroke-opacity:1;stroke-miterlimit:10;" d="M 114.293188 158.741375 C 90.711156 156.022625 90.711156 156.022625 74.105688 150.854656 C 72.004125 150.202313 68.89475 148.573406 67.160375 147.221844 C 31.066625 119.057781 24.492406 90.710125 23.472875 73.143719 C 23.347875 70.948406 23.785375 67.467938 24.453344 65.370281 C 27.211156 56.6945 27.211156 56.6945 41.976781 47.467938 C 43.843969 46.299969 45.965063 47.030438 46.715063 49.10075 C 68.031469 107.717938 68.031469 107.717938 114.293188 158.741375 " transform="matrix(1,0,0,-1,0.199,194.007)"/>
<path style=" stroke:none;fill-rule:nonzero;fill:rgb(7.998657%,7.998657%,7.998657%);fill-opacity:1;" d="M 90.910156 15.082031 C 111.546875 32.996094 123.792969 2.835938 105.082031 1.152344 C 102.890625 0.953125 99.390625 1.261719 97.269531 1.839844 C 77.757812 7.144531 77.300781 25.964844 76.652344 31.308594 C 76.386719 33.492188 76.257812 37.046875 76.367188 39.246094 C 77.300781 57.941406 77.300781 57.941406 80.199219 99.320312 C 80.351562 101.515625 80.714844 105.066406 81.011719 107.246094 C 86.601562 148.652344 86.601562 148.652344 91.304688 167.464844 C 91.835938 169.597656 92.582031 173.085938 92.964844 175.253906 C 95.445312 189.246094 92.042969 190.425781 93.785156 188.753906 C 92.195312 190.277344 89.410156 190.542969 87.566406 189.34375 C 70.273438 178.132812 60.292969 203.757812 78.777344 205.4375 C 80.96875 205.636719 84.492188 205.433594 86.644531 204.976562 C 87.054688 204.890625 98.167969 200.582031 100.144531 197.394531 C 101.308594 195.523438 102.933594 192.359375 103.78125 190.328125 C 104.515625 188.5625 105.421875 178.132812 105.328125 175.3125 C 105.253906 173.113281 104.914062 169.566406 104.566406 167.394531 C 101.566406 148.652344 101.566406 148.652344 98.878906 107.273438 C 98.734375 105.078125 98.371094 101.53125 98.0625 99.351562 C 93.175781 64.746094 93.175781 64.746094 87.839844 26.964844 C 87.53125 24.785156 87.46875 21.246094 87.703125 19.054688 C 87.960938 16.667969 87.960938 16.667969 90.910156 15.082031 "/>
<g clip-path="url(#clip3)" clip-rule="nonzero">
<path style="fill:none;stroke-width:1.59404;stroke-linecap:butt;stroke-linejoin:miter;stroke:rgb(7.998657%,7.998657%,7.998657%);stroke-opacity:1;stroke-miterlimit:10;" d="M 90.711156 178.924969 C 111.347875 161.010906 123.593969 191.171063 104.883031 192.854656 C 102.691625 193.053875 99.191625 192.745281 97.070531 192.167156 C 77.558813 186.862469 77.101781 168.042156 76.453344 162.698406 C 76.187719 160.514813 76.058813 156.960125 76.168188 154.760906 C 77.101781 136.065594 77.101781 136.065594 80.000219 94.686688 C 80.152563 92.491375 80.515844 88.940594 80.812719 86.760906 C 86.402563 45.354656 86.402563 45.354656 91.105688 26.542156 C 91.636938 24.409344 92.383031 20.921063 92.765844 18.753094 C 95.246313 4.760906 91.843969 3.581219 93.586156 5.253094 C 91.996313 3.729656 89.211156 3.464031 87.367406 4.66325 C 70.074438 15.874188 60.093969 -9.750812 78.578344 -11.4305 C 80.76975 -11.629719 84.293188 -11.426594 86.445531 -10.969562 C 86.855688 -10.883625 97.968969 -6.575031 99.945531 -3.387531 C 101.109594 -1.516437 102.734594 1.647625 103.58225 3.678875 C 104.316625 5.4445 105.222875 15.874188 105.129125 18.6945 C 105.054906 20.893719 104.715063 24.440594 104.367406 26.612469 C 101.367406 45.354656 101.367406 45.354656 98.679906 86.733563 C 98.535375 88.928875 98.172094 92.47575 97.8635 94.655438 C 92.976781 129.260906 92.976781 129.260906 87.640844 167.042156 C 87.33225 169.221844 87.26975 172.760906 87.504125 174.952313 C 87.761938 177.339031 87.761938 177.339031 90.711156 178.924969 " transform="matrix(1,0,0,-1,0.199,194.007)"/>
</g>
<path style=" stroke:none;fill-rule:nonzero;fill:rgb(100%,100%,100%);fill-opacity:1;" d="M 23.441406 124.839844 C 28.320312 135.046875 28.320312 135.046875 71.066406 138.78125 C 73.257812 138.972656 76.8125 139.277344 79.007812 139.457031 C 102.246094 141.394531 158.941406 116.902344 160.683594 103.84375 C 160.972656 101.664062 160.785156 101.628906 160.261719 103.765625 C 152.59375 135.046875 158.941406 150.917969 142.246094 157.414062 C 140.195312 158.210938 136.800781 159.292969 134.667969 159.832031 C 93.628906 170.195312 93.628906 170.195312 56.34375 170.808594 C 54.140625 170.847656 51.144531 169.570312 49.644531 167.957031 C 34.667969 151.828125 24.238281 132.777344 24.011719 124.839844 "/>
<g clip-path="url(#clip4)" clip-rule="nonzero">
<path style="fill:none;stroke-width:1.59404;stroke-linecap:butt;stroke-linejoin:miter;stroke:rgb(7.998657%,7.998657%,7.998657%);stroke-opacity:1;stroke-miterlimit:10;" d="M 23.242406 69.167156 C 28.121312 58.960125 28.121312 58.960125 70.867406 55.22575 C 73.058813 55.034344 76.6135 54.729656 78.808813 54.549969 C 102.047094 52.612469 158.742406 77.104656 160.484594 90.16325 C 160.773656 92.342938 160.586156 92.378094 160.062719 90.241375 C 152.39475 58.960125 158.742406 43.089031 142.047094 36.592938 C 139.996312 35.796063 136.601781 34.714031 134.468969 34.174969 C 93.429906 23.811688 93.429906 23.811688 56.14475 23.198406 C 53.941625 23.159344 50.945531 24.436688 49.445531 26.049969 C 34.468969 42.178875 24.039281 61.229656 23.812719 69.167156 " transform="matrix(1,0,0,-1,0.199,194.007)"/>
</g>
</g>
</svg>
